<svg xmlns="http://www.w3.org/2000/svg" width="1600" height="900" viewBox="0 0 1600 900" role="img" aria-labelledby="title desc">
  <title id="title">Abstract editing timeline</title>
  <desc id="desc">A monochrome cinematic composition of frames, tracks, and a central light signal.</desc>
  <defs>
    <linearGradient id="bg" x1="0" y1="0" x2="1" y2="1">
      <stop offset="0" stop-color="#050607"/>
      <stop offset="0.52" stop-color="#121519"/>
      <stop offset="1" stop-color="#030405"/>
    </linearGradient>
    <radialGradient id="glow" cx="62%" cy="42%" r="42%">
      <stop offset="0" stop-color="#f4f2ec" stop-opacity="0.42"/>
      <stop offset="0.28" stop-color="#d8d9dc" stop-opacity="0.12"/>
      <stop offset="1" stop-color="#000" stop-opacity="0"/>
    </radialGradient>
    <pattern id="grid" width="64" height="64" patternUnits="userSpaceOnUse">
      <path d="M64 0H0V64" fill="none" stroke="#fff" stroke-opacity="0.055" stroke-width="1"/>
    </pattern>
    <filter id="soft" x="-30%" y="-30%" width="160%" height="160%">
      <feGaussianBlur stdDeviation="18"/>
    </filter>
  </defs>
  <rect width="1600" height="900" fill="url(#bg)"/>
  <rect width="1600" height="900" fill="url(#grid)"/>
  <rect width="1600" height="900" fill="url(#glow)"/>
  <g fill="none" stroke="#f4f2ec" stroke-opacity="0.28">
    <rect x="128" y="120" width="568" height="356" rx="4"/>
    <rect x="696" y="120" width="776" height="356" rx="4"/>
    <path d="M128 524H1472M128 588H1472M128 652H1472M128 716H1472"/>
  </g>
  <g fill="#f4f2ec">
    <rect x="160" y="556" width="238" height="14" opacity="0.58"/>
    <rect x="412" y="556" width="388" height="14" opacity="0.2"/>
    <rect x="816" y="556" width="520" height="14" opacity="0.36"/>
    <rect x="216" y="620" width="452" height="14" opacity="0.22"/>
    <rect x="682" y="620" width="240" height="14" opacity="0.56"/>
    <rect x="936" y="620" width="300" height="14" opacity="0.18"/>
    <rect x="144" y="684" width="316" height="14" opacity="0.34"/>
    <rect x="474" y="684" width="630" height="14" opacity="0.16"/>
    <rect x="1118" y="684" width="250" height="14" opacity="0.48"/>
  </g>
  <g transform="translate(880 298)">
    <circle r="132" fill="#fff" opacity="0.07" filter="url(#soft)"/>
    <circle r="62" fill="none" stroke="#f4f2ec" stroke-width="1.5" opacity="0.75"/>
    <circle r="10" fill="#f4f2ec"/>
    <path d="M-210 0H-84M84 0H210M0-160V-84M0 84V160" stroke="#f4f2ec" stroke-opacity="0.5"/>
  </g>
  <path d="M880 92V780" stroke="#f4f2ec" stroke-width="2" stroke-opacity="0.72"/>
  <path d="M872 92H888M872 780H888" stroke="#f4f2ec" stroke-opacity="0.72"/>
  <g fill="#f4f2ec" opacity="0.72">
    <circle cx="128" cy="812" r="4"/>
    <circle cx="1472" cy="812" r="4"/>
  </g>
</svg>
